<svg width="640" height="640" viewBox="0 0 640 640" fill="none" xmlns="http://www.w3.org/2000/svg">
<rect width="640" height="640" fill="black"/>
<path fill-rule="evenodd" clip-rule="evenodd" d="M254 109C168.948 109 100 177.948 100 263V377.65C100 462.702 168.948 531.65 254 531.65H385C470.052 531.65 539 462.702 539 377.65V263C539 177.948 470.052 109 385 109H254ZM282 185C224.01 185 177 232.01 177 290V349.777C177 407.766 224.01 454.777 282 454.777H357.309C415.299 454.777 462.309 407.766 462.309 349.777V290C462.309 232.01 415.299 185 357.309 185H282Z" fill="#D9D9D9"/>
</svg>
